<?xml version="1.0" encoding="utf-8"?>
<!-- Svg Vector Icons : http://www.onlinewebfonts.com/icon -->
<!DOCTYPE svg PUBLIC "-//W3C//DTD SVG 1.1//EN" "http://www.w3.org/Graphics/SVG/1.1/DTD/svg11.dtd">
<svg version="1.1" xmlns="http://www.w3.org/2000/svg" xmlns:xlink="http://www.w3.org/1999/xlink" x="0px" y="0px" viewBox="0 0 1000 1000" enable-background="new 0 0 1000 1000" xml:space="preserve">
<metadata> Svg Vector Icons : http://www.onlinewebfonts.com/icon </metadata>
<g><g transform="translate(0.000000,511.000000) scale(0.100000,-0.100000)"><path d="M4528,4993.7c-700.8-72.9-1461.3-327.2-2058.2-685.3C1820,3914.9,1196.5,3291.4,803,2641.5C318.9,1836.8,62.5,844.2,104.5-79.9c53.1-1222.5,528.4-2336.7,1366.2-3205.5c413.4-431.1,844.5-745,1377.3-1005.9c707.4-347.1,1352.9-495.2,2155.4-495.2c802.5,0,1452.4,148.1,2155.4,495.2c535,263.1,963.9,577,1370.6,997c725.1,753.9,1167.2,1658,1330.8,2716.9c53,347.1,53,1023.6,0,1370.6c-84,548.2-221.1,988.2-457.6,1470.1c-811.3,1655.8-2442.8,2699.2-4288.7,2741.2C4901.6,5009.1,4638.6,5004.7,4528,4993.7z M5467.6,3444c691.9-174.6,1240.2-751.6,1381.7-1454.6c50.8-247.6,35.4-649.9-33.2-886.5C6553,192.1,5644.4-391.6,4715.9-245.7C4059.4-141.8,3500.1,302.6,3256.9,910.5c-179.1,451-179.1,986,4.4,1423.7C3619.4,3198.6,4561.2,3671.7,5467.6,3444z M6948.7-1072.5c453.2-84,853.3-254.2,1167.2-493c201.2-154.7,424.5-395.7,424.5-459.8c0-26.5-57.5-130.4-130.4-234.3C7353.3-3771.7,5438.8-4406.2,3688-3824.8c-837.8,278.6-1582.9,835.7-2091.3,1565.2c-72.9,103.9-130.4,207.8-130.4,234.3c0,66.3,245.4,329.4,437.7,470.9c380.2,283,837.9,451,1388.3,510.7c95.1,11.1,910.8,17.7,1810.6,15.5C6566.3-1032.7,6760.8-1037.1,6948.7-1072.5z"/></g></g>
</svg>